<?xml version="1.0" standalone="no"?>
<!DOCTYPE svg PUBLIC "-//W3C//DTD SVG 1.0//EN" "http://www.w3.org/TR/2001/REC-SVG-20010904/DTD/svg10.dtd">
<svg xmlns="http://www.w3.org/2000/svg" xmlns:xlink="http://www.w3.org/1999/xlink" id="body_1" width="20" height="20">

<g transform="matrix(0.8000001 0 0 0.8000001 0 0)">
	<g transform="matrix(0.5 0 0 0.5 0 0)">
	</g>
    <path transform="matrix(0.5 0 0 0.5 0 0)"  d="M10.96429 0.66667C 5.1949797 0.66667 0.50000954 5.3764997 0.50000954 11.16667L0.50000954 11.16667L0.50000954 39.16666C 0.50000954 44.95683 5.1949897 49.66666 10.96429 49.66666L10.96429 49.66666L38.86905 49.66666C 39.26204 49.66666 39.64922 49.64147 40.03175 49.59831L40.03175 49.59831L40.03175 0.7350273C 39.64922 0.69185734 39.26204 0.6666773 38.86905 0.6666773L38.86905 0.6666773L10.964289 0.6666773L10.96429 0.66667zM42.35714 1.27962L42.35714 12.33333L49.33333 12.33333L49.33333 11.16666C 49.33333 6.6049905 46.41496 2.7251205 42.35714 1.2796202zM21.42857 10C 29.76279 10 36.543648 16.804 36.543648 25.16666C 36.543648 33.52932 29.762787 40.33332 21.428568 40.33332C 13.094348 40.33332 6.313488 33.52932 6.313488 25.16666C 6.313488 16.804 13.094348 10 21.428568 10zM21.42857 12.33333C 14.37681 12.33333 8.63889 18.09083 8.63889 25.16666C 8.63889 28.449661 9.884621 31.44008 11.913521 33.71158C 14.323791 31.262749 17.76839 29.833319 21.42857 29.833319C 25.07944 29.833319 28.53673 31.259348 30.94816 33.70701C 32.97358 31.435509 34.21825 28.447319 34.21825 25.166649C 34.21825 18.090818 28.480331 12.333319 21.42857 12.333319zM42.35714 14.66666L42.35714 23.99999L49.33333 23.99999L49.33333 14.66666L42.35714 14.66666zM21.42857 17.58333C 24.31322 17.58333 26.66071 19.93883 26.66071 22.83333C 26.66071 25.72783 24.31322 28.08333 21.42857 28.08333C 18.54392 28.08333 16.19643 25.72783 16.19643 22.83333C 16.19643 19.93883 18.54392 17.58333 21.42857 17.58333zM42.35714 26.33333L42.35714 35.66666L49.33333 35.66666L49.33333 26.33333L42.35714 26.33333zM42.35714 37.999992L42.35714 49.053703C 46.41496 47.608204 49.33333 43.728325 49.33333 39.166664L49.33333 39.166664L49.33333 37.999992L42.35714 37.999992z" stroke="#FFFFFF" stroke-width="1" fill="#000000" fill-rule="nonzero" stroke-opacity="0" />
</g>
</svg>