<?xml version="1.0" standalone="no"?>
<!DOCTYPE svg PUBLIC "-//W3C//DTD SVG 1.0//EN" "http://www.w3.org/TR/2001/REC-SVG-20010904/DTD/svg10.dtd">
<svg xmlns="http://www.w3.org/2000/svg" xmlns:xlink="http://www.w3.org/1999/xlink" id="body_1" width="20" height="20">

<g transform="matrix(0.0390625 0 0 0.0390625 0 0)">
	<g>
	</g>
    <path d="M335.808 55.02L281.36902 9.292C 273.99503 3.0969996 264.997 0 256.00003 0C 247.00305 0 238.00504 3.097 230.63103 9.292L230.63103 9.292L176.19203 55.02L335.808 55.02z" stroke="none" fill="#000000" fill-rule="nonzero" />
	<g>
	</g>
    <path d="M46 200.888L249.843 360.14C 252.086 361.89203 254.429 362.26 256 362.26C 257.57098 362.26 259.914 361.892 262.156 360.14L262.156 360.14L466 200.88802L466 105.02002C 466 93.97402 457.046 85.02002 446 85.02002L446 85.02002L66 85.02002C 54.954002 85.02002 46 93.97402 46 105.02002L46 105.02002L46 200.888zM380.5 225C 380.5 233.284 373.784 240 365.5 240L365.5 240L146.5 240C 138.216 240 131.5 233.284 131.5 225C 131.5 216.716 138.216 210 146.5 210L146.5 210L365.5 210C 373.784 210 380.5 216.716 380.5 225zM288.5 150C 296.784 150 303.5 156.716 303.5 165C 303.5 173.284 296.784 180 288.5 180L288.5 180L146.5 180C 138.216 180 131.5 173.284 131.5 165C 131.5 156.716 138.216 150 146.5 150z" stroke="none" fill="#000000" fill-rule="nonzero" />
	<g>
	</g>
    <path d="M472 512C 476.104 512 480.062 511.38 483.789 510.232L483.789 510.232L295.46002 375.211C 294.79 374.73 294.18604 374.194 293.61902 373.63L293.61902 373.63L280.62503 383.781C 273.39005 389.43402 264.69403 392.26 255.99902 392.26C 247.30402 392.26 238.60902 389.43402 231.37302 383.781L231.37302 383.781L218.37901 373.63C 217.81302 374.194 217.20901 374.73 216.53801 375.211L216.53801 375.211L28.211014 510.232C 31.938013 511.38 35.896015 512 40.000015 512L40.000015 512L472 512z" stroke="none" fill="#000000" fill-rule="nonzero" />
	<g>
	</g>
    <path d="M512 203.02L318.08398 354.517L507.541 490.347C 510.38397 484.84998 512 478.615 512 472L512 472L512 203.02z" stroke="none" fill="#000000" fill-rule="nonzero" />
	<g>
	</g>
    <path d="M193.916 354.517L0 203.02L0 472C 0 478.615 1.616 484.85 4.459 490.346L4.459 490.346L193.916 354.517z" stroke="none" fill="#000000" fill-rule="nonzero" />
</g>
</svg>